<?xml version="1.0" standalone="no"?>
<!DOCTYPE svg PUBLIC "-//W3C//DTD SVG 20010904//EN"
 "http://www.w3.org/TR/2001/REC-SVG-20010904/DTD/svg10.dtd">
<svg version="1.0" xmlns="http://www.w3.org/2000/svg"
 width="512.000000pt" height="512.000000pt" viewBox="0 0 512.000000 512.000000"
 preserveAspectRatio="xMidYMid meet">

<g transform="translate(0.000000,512.000000) scale(0.100000,-0.100000)"
fill="#000000" stroke="none">
<path d="M1711 4943 c-14 -12 -30 -50 -46 -107 -59 -217 -175 -355 -297 -356
-158 -1 -407 135 -640 348 -43 39 -65 52 -88 52 -37 0 -80 -39 -80 -72 0 -13
36 -165 80 -338 43 -173 77 -317 74 -320 -8 -7 -109 48 -206 112 -96 64 -126
71 -163 33 -34 -33 -31 -63 15 -162 82 -176 217 -345 362 -456 294 -224 655
-287 1104 -192 160 33 321 83 570 176 317 118 555 194 667 214 131 23 295 17
389 -15 58 -19 72 -21 97 -10 37 15 56 58 44 97 -27 82 -314 129 -544 88 -136
-23 -343 -86 -561 -170 -14 -6 -11 8 17 68 71 154 146 433 131 491 -3 14 -18
33 -32 43 -25 16 -35 16 -223 -15 -108 -18 -199 -32 -202 -32 -3 0 -9 26 -12
58 -19 180 -146 355 -327 451 -66 35 -98 39 -129 14z m198 -268 c24 -26 55
-72 69 -103 24 -52 27 -68 27 -175 0 -113 1 -120 24 -138 30 -24 31 -24 243
11 99 17 182 29 184 27 7 -7 -45 -177 -78 -255 -49 -118 -161 -272 -197 -272
-15 0 -158 157 -211 231 -57 80 -130 222 -130 251 0 31 -45 68 -81 68 -27 0
-41 -10 -83 -57 -101 -115 -185 -190 -258 -228 l-72 -38 -130 16 c-72 9 -171
27 -221 39 l-90 23 -62 245 c-34 134 -61 245 -60 247 1 1 38 -23 82 -53 187
-129 385 -201 522 -191 176 13 323 149 403 374 l23 63 26 -20 c15 -10 46 -40
70 -65z m-149 -642 c35 -66 121 -185 193 -266 33 -37 58 -69 56 -71 -2 -2 -60
-18 -128 -35 -432 -108 -767 -68 -1035 123 -58 41 -232 213 -224 221 2 2 42
-11 88 -30 172 -69 380 -116 577 -131 l91 -7 95 46 c73 36 113 64 173 121 44
41 81 75 84 76 3 0 16 -21 30 -47z"/>
<path d="M4432 4703 c-12 -10 -30 -44 -41 -76 -48 -140 -183 -273 -378 -371
-75 -37 -93 -57 -93 -101 0 -33 42 -75 75 -75 70 0 278 134 393 254 86 90 158
215 169 293 5 35 2 45 -20 67 -31 31 -75 34 -105 9z"/>
<path d="M4752 4623 c-12 -10 -35 -55 -52 -101 -42 -110 -135 -249 -230 -342
-108 -107 -285 -221 -402 -259 -69 -23 -90 -90 -42 -138 34 -34 73 -28 190 26
236 111 436 290 558 501 48 83 106 221 106 255 0 59 -83 96 -128 58z"/>
<path d="M3225 3335 c-25 -24 -25 -27 -25 -191 l0 -166 -23 5 c-169 43 -659
57 -832 24 -204 -39 -265 -67 -265 -124 0 -14 47 -103 106 -201 79 -132 102
-177 92 -183 -7 -5 -141 -89 -298 -187 -211 -132 -287 -185 -294 -204 -20 -58
-8 -70 239 -234 l234 -157 -5 -41 c-2 -22 -20 -268 -40 -546 -26 -368 -32
-510 -25 -527 21 -46 28 -46 561 -9 278 20 524 38 546 40 l41 5 157 -234 c164
-247 176 -259 234 -239 19 7 72 83 204 294 98 157 182 291 187 298 6 10 51
-13 183 -92 98 -59 187 -106 201 -106 57 0 85 61 124 265 33 173 19 663 -24
832 l-5 23 166 0 c164 0 167 0 191 25 35 34 31 68 -16 155 -135 248 -372 416
-699 498 l-111 28 102 94 c121 112 370 377 474 505 112 138 195 264 195 297 0
54 -61 92 -114 72 -9 -4 -39 -41 -68 -83 -114 -171 -312 -396 -569 -646 -130
-126 -144 -138 -147 -115 -2 14 -15 70 -29 125 -78 315 -252 555 -494 684 -88
47 -120 51 -154 16z m243 -282 c154 -156 246 -356 282 -617 l10 -80 -36 -37
-37 -38 -68 59 c-139 120 -295 206 -460 254 -88 25 -212 46 -275 46 -69 0
-108 -78 -66 -130 15 -19 36 -25 125 -36 58 -8 143 -26 189 -40 87 -27 253
-109 302 -148 l28 -23 -138 -7 c-317 -16 -580 -73 -766 -167 -83 -42 -102 -95
-53 -144 32 -33 58 -31 146 9 95 44 247 89 372 110 123 21 368 38 426 30 l43
-7 -426 -426 c-387 -388 -426 -429 -426 -459 0 -44 38 -82 82 -82 30 0 71 39
459 426 l426 426 6 -40 c8 -45 -8 -306 -23 -402 -24 -148 -79 -330 -129 -428
-28 -54 -27 -87 4 -117 25 -26 63 -32 96 -15 43 24 130 249 169 438 22 109 36
237 48 422 l7 114 42 -64 c90 -139 155 -323 169 -479 6 -59 12 -80 30 -98 51
-51 134 -11 134 64 0 68 -30 225 -60 315 -53 157 -127 286 -240 417 l-59 68
38 37 37 36 80 -10 c265 -37 488 -141 634 -297 38 -41 70 -79 70 -84 0 -5 -65
-9 -145 -9 -143 0 -146 0 -172 -26 -28 -29 -29 -15 6 -219 28 -165 41 -305 41
-451 0 -127 -24 -352 -40 -368 -4 -4 -78 34 -168 88 -88 53 -171 96 -185 96
-14 0 -34 -8 -45 -17 -11 -10 -88 -127 -171 -261 -83 -134 -159 -254 -168
-268 l-16 -25 -133 199 c-73 110 -140 202 -150 206 -11 4 -252 -9 -537 -30
-284 -20 -520 -34 -524 -31 -3 4 11 240 31 524 21 285 34 526 30 537 -4 10
-97 78 -207 151 l-199 133 38 25 c22 13 143 88 269 167 127 78 238 151 248
162 9 11 17 31 17 45 0 14 -43 97 -96 185 -53 88 -92 163 -88 168 18 16 143
31 299 37 174 6 338 -6 525 -38 196 -35 185 -34 214 -6 26 26 26 29 26 172 0
95 4 145 11 145 5 0 49 -39 97 -87z"/>
<path d="M583 2694 c-22 -22 -25 -32 -20 -67 11 -78 83 -203 169 -293 115
-120 323 -254 393 -254 33 0 75 42 75 75 0 44 -18 64 -93 101 -193 98 -330
232 -378 371 -11 32 -29 66 -41 76 -30 25 -74 22 -105 -9z"/>
<path d="M285 2628 c-56 -33 -57 -62 -6 -181 118 -282 333 -501 628 -639 114
-53 153 -59 187 -25 31 31 34 75 9 105 -10 11 -52 34 -94 51 -270 111 -498
340 -594 596 -15 39 -32 76 -38 82 -18 19 -69 25 -92 11z"/>
</g>
</svg>
